name rise31.4854peak64.571fall78.6902.mot
datacolumns 19
datarows 35
range 23.52658200000000 23.58324400000000
endheader
time	ground_force1_vx	ground_force1_vy	ground_force1_vz	ground_force1_px	ground_force1_py	ground_force1_pz	ground_force2_vx	ground_force2_vy	ground_force2_vz	ground_force2_px	ground_force2_py	ground_force2_pz	ground_torque1_x	ground_torque1_y	ground_torque1_z	ground_torque2_x	ground_torque2_y	ground_torque2_z	
23.52658200000000	-4.55926800000000	40.65796500000000	-10.40902200000000	0.32098300000000	0.00000000000000	0.07537100000000	-47.26013800000000	793.57758200000001	-50.27951800000000	0.11703200000000	0.00000000000000	-0.09540400000000	0.00000000000000	-7.57765500000000	0.00000000000000	0.00000000000000	-18.43886900000000	0.00000000000000	
23.52824300000000	-4.87216600000000	47.52615400000000	-11.71224700000000	0.32529600000000	0.00000000000000	0.07655500000000	-47.97984700000000	790.99609199999998	-49.84012700000000	0.11635800000000	0.00000000000000	-0.09528100000000	0.00000000000000	-8.60950100000000	0.00000000000000	0.00000000000000	-18.43181800000000	0.00000000000000	
23.52990900000000	-5.06218300000000	54.44949100000000	-12.89904700000000	0.32928800000000	0.00000000000000	0.07764000000000	-48.73166900000000	788.29877499999998	-49.38035000000000	0.11568100000000	0.00000000000000	-0.09515500000000	0.00000000000000	-9.57410700000000	0.00000000000000	0.00000000000000	-18.43027200000000	0.00000000000000	
23.53158200000000	-5.11575600000000	61.33716600000000	-13.94187200000000	0.33300300000000	0.00000000000000	0.07864200000000	-49.51492700000000	785.48317599999996	-48.90007000000000	0.11500100000000	0.00000000000000	-0.09502400000000	0.00000000000000	-10.45012300000000	0.00000000000000	0.00000000000000	-18.43411500000000	0.00000000000000	
23.53324400000000	-5.02530400000000	68.12171100000000	-14.82239100000000	0.33647900000000	0.00000000000000	0.07957100000000	-50.32879200000000	782.54678300000000	-48.39918600000000	0.11431900000000	0.00000000000000	-0.09489000000000	0.00000000000000	-11.22264600000000	0.00000000000000	0.00000000000000	-18.44320200000000	0.00000000000000	
23.53491100000000	-4.78904800000000	74.76097400000000	-15.53161700000000	0.33974500000000	0.00000000000000	0.08043800000000	-51.17228300000000	779.48702200000002	-47.87761400000000	0.11363500000000	0.00000000000000	-0.09475200000000	0.00000000000000	-11.88346500000000	0.00000000000000	0.00000000000000	-18.45735400000000	0.00000000000000	
23.53658100000000	-4.41038600000000	81.23768300000000	-16.06925300000000	0.34282700000000	0.00000000000000	0.08124900000000	-52.04426500000000	776.30127100000004	-47.33529200000000	0.11295100000000	0.00000000000000	-0.09460900000000	0.00000000000000	-12.43072400000000	0.00000000000000	0.00000000000000	-18.47636000000000	0.00000000000000	
23.53824200000000	-3.89696200000000	87.55703500000000	-16.44243800000000	0.34574400000000	0.00000000000000	0.08201100000000	-52.94345000000000	772.98686499999997	-46.77217600000000	0.11226600000000	0.00000000000000	-0.09446300000000	0.00000000000000	-12.86811600000000	0.00000000000000	0.00000000000000	-18.49997600000000	0.00000000000000	
23.53991500000000	-3.25954200000000	93.74284700000000	-16.66409900000000	0.34851500000000	0.00000000000000	0.08273000000000	-53.86839800000000	769.54110700000001	-46.18825100000000	0.11158000000000	0.00000000000000	-0.09431300000000	0.00000000000000	-13.20376400000000	0.00000000000000	0.00000000000000	-18.52792900000000	0.00000000000000	
23.54157400000000	-2.51083200000000	99.83284800000000	-16.75111400000000	0.35115300000000	0.00000000000000	0.08341100000000	-54.81751900000000	765.96127200000001	-45.58352500000000	0.11089500000000	0.00000000000000	-0.09415900000000	0.00000000000000	-13.44892300000000	0.00000000000000	0.00000000000000	-18.55991200000000	0.00000000000000	
23.54324700000000	-1.66434800000000	105.87364100000001	-16.72247500000000	0.35367100000000	0.00000000000000	0.08405700000000	-55.78907500000000	762.24462200000005	-44.95803600000000	0.11021100000000	0.00000000000000	-0.09400100000000	0.00000000000000	-13.61665100000000	0.00000000000000	0.00000000000000	-18.59559100000000	0.00000000000000	
23.54491100000000	-0.73341500000000	111.91580999999999	-16.59759800000000	0.35607900000000	0.00000000000000	0.08467200000000	-56.78118300000000	758.38841300000001	-44.31185200000000	0.10952800000000	0.00000000000000	-0.09383800000000	0.00000000000000	-13.72056400000000	0.00000000000000	0.00000000000000	-18.63460000000000	0.00000000000000	
23.54658200000000	0.26964200000000	118.00953100000000	-16.39488200000000	0.35838500000000	0.00000000000000	0.08525900000000	-57.79181900000000	754.38990500000000	-43.64507600000000	0.10884700000000	0.00000000000000	-0.09367200000000	0.00000000000000	-13.77375200000000	0.00000000000000	0.00000000000000	-18.67654800000000	0.00000000000000	
23.54824300000000	1.33409400000000	124.20095000000001	-16.13060700000000	0.36059700000000	0.00000000000000	0.08582000000000	-58.81881800000000	750.24637900000005	-42.95784700000000	0.10816900000000	0.00000000000000	-0.09350200000000	0.00000000000000	-13.78792500000000	0.00000000000000	0.00000000000000	-18.72101500000000	0.00000000000000	
23.54991600000000	2.45116900000000	130.52947200000000	-15.81817400000000	0.36272100000000	0.00000000000000	0.08635700000000	-59.85988600000000	745.95514500000002	-42.25033900000000	0.10749300000000	0.00000000000000	-0.09332700000000	0.00000000000000	-13.77280300000000	0.00000000000000	0.00000000000000	-18.76755400000000	0.00000000000000	
23.55158300000000	3.61419900000000	137.02600100000001	-15.46770000000000	0.36476300000000	0.00000000000000	0.08687300000000	-60.91259900000000	741.51355400000000	-41.52277000000000	0.10682100000000	0.00000000000000	-0.09314900000000	0.00000000000000	-13.73577800000000	0.00000000000000	0.00000000000000	-18.81569800000000	0.00000000000000	
23.55324500000000	4.81858100000000	143.71210800000000	-15.08593900000000	0.36672600000000	0.00000000000000	0.08736900000000	-61.97441200000000	736.91901800000005	-40.77539800000000	0.10615400000000	0.00000000000000	-0.09296600000000	0.00000000000000	-13.68179200000000	0.00000000000000	0.00000000000000	-18.86495300000000	0.00000000000000	
23.55491500000000	6.06158900000000	150.60000299999999	-14.67645400000000	0.36861500000000	0.00000000000000	0.08784600000000	-63.04266400000000	732.16902100000004	-40.00852600000000	0.10549000000000	0.00000000000000	-0.09278000000000	0.00000000000000	-13.61344000000000	0.00000000000000	0.00000000000000	-18.91480600000000	0.00000000000000	
23.55657400000000	7.34206600000000	157.69318000000001	-14.24001100000000	0.37043200000000	0.00000000000000	0.08830600000000	-64.11458700000000	727.26113399999997	-39.22250200000000	0.10483200000000	0.00000000000000	-0.09258900000000	0.00000000000000	-13.53121500000000	0.00000000000000	0.00000000000000	-18.96472700000000	0.00000000000000	
23.55824900000000	8.66006600000000	164.98755800000001	-13.77510200000000	0.37218000000000	0.00000000000000	0.08875000000000	-65.18731099999999	722.19303700000000	-38.41772300000000	0.10418000000000	0.00000000000000	-0.09239400000000	0.00000000000000	-13.43387800000000	0.00000000000000	0.00000000000000	-19.01416400000000	0.00000000000000	
23.55990800000000	10.01645000000000	172.47293800000000	-13.27854900000000	0.37386200000000	0.00000000000000	0.08917800000000	-66.25787600000000	716.96253000000002	-37.59463300000000	0.10353400000000	0.00000000000000	-0.09219500000000	0.00000000000000	-13.31888800000000	0.00000000000000	0.00000000000000	-19.06255400000000	0.00000000000000	
23.56158000000000	11.41250500000000	180.13461500000000	-12.74611500000000	0.37547800000000	0.00000000000000	0.08959300000000	-67.32323400000000	711.56755399999997	-36.75372500000000	0.10289400000000	0.00000000000000	-0.09199200000000	0.00000000000000	-13.18285300000000	0.00000000000000	0.00000000000000	-19.10931800000000	0.00000000000000	
23.56324500000000	12.84959100000000	187.95499500000000	-12.17309200000000	0.37703100000000	0.00000000000000	0.08999400000000	-68.38026700000000	706.00620900000001	-35.89554400000000	0.10226100000000	0.00000000000000	-0.09178500000000	0.00000000000000	-13.02196300000000	0.00000000000000	0.00000000000000	-19.15386900000000	0.00000000000000	
23.56491900000000	14.32884000000000	195.91508999999999	-11.55481300000000	0.37852100000000	0.00000000000000	0.09038200000000	-69.42578899999999	700.27677200000005	-35.02068600000000	0.10163600000000	0.00000000000000	-0.09157400000000	0.00000000000000	-12.83238100000000	0.00000000000000	0.00000000000000	-19.19560800000000	0.00000000000000	
23.56657600000000	15.85092600000000	203.99582000000001	-10.88707400000000	0.37995000000000	0.00000000000000	0.09075800000000	-70.45655800000000	694.37771499999997	-34.12979700000000	0.10101800000000	0.00000000000000	-0.09135900000000	0.00000000000000	-12.61056600000000	0.00000000000000	0.00000000000000	-19.23393100000000	0.00000000000000	
23.56824100000000	17.41590900000000	212.17904899999999	-10.16644600000000	0.38131700000000	0.00000000000000	0.09112200000000	-71.46928900000000	688.30772000000002	-33.22357400000000	0.10040800000000	0.00000000000000	-0.09114000000000	0.00000000000000	-12.35351900000000	0.00000000000000	0.00000000000000	-19.26823100000000	0.00000000000000	
23.56991300000000	19.02313700000000	220.44834399999999	-9.39048000000000	0.38262300000000	0.00000000000000	0.09147600000000	-72.46066000000000	682.06569800000000	-32.30276700000000	0.09980700000000	0.00000000000000	-0.09091700000000	0.00000000000000	-12.05894800000000	0.00000000000000	0.00000000000000	-19.29789600000000	0.00000000000000	
23.57157500000000	20.67122400000000	228.78944300000001	-8.55780500000000	0.38386900000000	0.00000000000000	0.09181900000000	-73.42732400000000	675.65080000000000	-31.36817500000000	0.09921400000000	0.00000000000000	-0.09069000000000	0.00000000000000	-11.72535600000000	0.00000000000000	0.00000000000000	-19.32231800000000	0.00000000000000	
23.57324600000000	22.35807300000000	237.19046900000001	-7.66814100000000	0.38505400000000	0.00000000000000	0.09215100000000	-74.36592400000001	669.06243199999994	-30.42064900000000	0.09863000000000	0.00000000000000	-0.09046000000000	0.00000000000000	-11.35206400000000	0.00000000000000	0.00000000000000	-19.34089000000000	0.00000000000000	
23.57490700000000	24.08094500000000	245.64192499999999	-6.72223100000000	0.38617800000000	0.00000000000000	0.09247400000000	-75.27309600000000	662.30026599999997	-29.46109100000000	0.09805500000000	0.00000000000000	-0.09022500000000	0.00000000000000	-10.93916500000000	0.00000000000000	0.00000000000000	-19.35301200000000	0.00000000000000	
23.57657500000000	25.83655200000000	254.13649500000000	-5.72172900000000	0.38724200000000	0.00000000000000	0.09278700000000	-76.14548700000000	655.36424599999998	-28.49045100000000	0.09748900000000	0.00000000000000	-0.08998700000000	0.00000000000000	-10.48745200000000	0.00000000000000	0.00000000000000	-19.35809100000000	0.00000000000000	
23.57824400000000	27.62117500000000	262.66874300000001	-4.66903900000000	0.38824400000000	0.00000000000000	0.09309100000000	-76.97976300000001	648.25459499999999	-27.50973200000000	0.09693300000000	0.00000000000000	-0.08974400000000	0.00000000000000	-9.99830000000000	0.00000000000000	0.00000000000000	-19.35554500000000	0.00000000000000	
23.57990700000000	29.43077700000000	271.23471699999999	-3.56714700000000	0.38918500000000	0.00000000000000	0.09338600000000	-77.77262200000000	640.97181799999998	-26.51998300000000	0.09638600000000	0.00000000000000	-0.08949900000000	0.00000000000000	-9.47354500000000	0.00000000000000	0.00000000000000	-19.34480600000000	0.00000000000000	
23.58158000000000	31.26112200000000	279.83153299999998	-2.41945200000000	0.39006300000000	0.00000000000000	0.09367200000000	-78.52080800000000	633.51670999999999	-25.52230300000000	0.09584800000000	0.00000000000000	-0.08924900000000	0.00000000000000	-8.91535600000000	0.00000000000000	0.00000000000000	-19.32532300000000	0.00000000000000	
23.58324400000000	33.10787500000000	288.45696400000003	-1.22959800000000	0.39088000000000	0.00000000000000	0.09395000000000	-79.22111599999999	625.89034900000001	-24.51783900000000	0.09531900000000	0.00000000000000	-0.08899600000000	0.00000000000000	-8.32611200000000	0.00000000000000	0.00000000000000	-19.29656100000000	0.00000000000000	
